<svg width="106" height="65" viewBox="0 0 106 65" fill="none" xmlns="http://www.w3.org/2000/svg">
<g clip-path="url(#clip0_462_4204)">
<path d="M105.005 6.67016C104.583 7.15423 104.623 7.76665 104.554 8.33874C104.44 9.33255 104.359 10.33 104.275 11.3275C104.213 12.0719 104.191 12.8237 104.095 13.5645C103.974 14.5326 103.791 15.4971 103.652 16.4653C103.564 17.085 103.531 17.7121 103.443 18.3282C103.31 19.2523 103.156 20.1691 102.995 21.0896C102.823 22.0614 102.639 23.0332 102.441 24.0014C102.053 25.879 101.697 27.7676 101.246 29.6305C100.784 31.5485 100.325 33.4774 99.6726 35.3367C99.0749 37.0493 98.8732 38.8389 98.3378 40.5588C97.883 42.0183 97.4796 43.4962 97.0506 44.9631C96.4272 47.0901 95.7267 49.1987 95.195 51.3513C94.8246 52.8512 94.7586 54.4135 95.1583 55.9353C95.3747 56.7641 95.8661 57.4389 96.7352 57.7396C96.4235 58.5721 95.5984 58.9131 94.7952 58.6234C93.7574 58.2493 93.09 57.4499 92.3639 56.6945C91.5314 55.829 91.3921 54.7068 91.2307 53.6287C91.0657 52.5175 91.0107 51.3807 91.04 50.2549C91.0694 49.14 91.3444 48.0325 91.3627 46.9214C91.3957 44.8971 92.2172 43.0635 92.6206 41.1309C92.8956 39.8217 93.178 38.5125 93.4934 37.2106C94.0288 35.0103 94.5165 32.7916 95.1693 30.6243C95.745 28.7247 96.0678 26.7811 96.5152 24.8631C96.6435 24.3204 96.7755 23.7813 96.9369 23.1249C96.6252 23.2056 96.4161 23.2422 96.2181 23.3119C95.2793 23.653 94.3295 23.928 93.3137 23.906C91.7698 23.873 90.6623 23.1139 89.8995 21.8267C89.2358 20.7045 88.8617 19.4724 88.6563 18.1925C88.484 17.0923 88.3446 15.9885 88.1869 14.8884C88.1613 14.7123 88.1136 14.5436 88.0549 14.2796C87.8826 14.3676 87.7065 14.408 87.6039 14.518C86.1553 16.0472 84.3511 17.0263 82.4441 17.8405C81.7913 18.1192 81.1533 18.4272 80.5005 18.7096C80.2915 18.8013 80.2145 18.9113 80.2365 19.1496C80.3575 20.4808 80.5665 21.7974 80.9846 23.0662C81.0909 23.3853 81.0432 23.5833 80.7939 23.763C80.1191 24.2507 79.437 24.3717 78.7989 23.73C78.1975 23.1249 77.9848 22.3218 77.6804 21.5663C77.464 21.0309 77.3137 20.4662 77.1267 19.9161C76.9176 19.3073 76.3309 19.3917 75.8688 19.2633C75.4984 19.1606 75.1134 19.0983 74.7357 19.0176C74.7246 18.959 74.71 18.9003 74.699 18.8416C75.1574 18.4969 75.5938 18.1155 76.0815 17.8258C76.4446 17.6094 76.4446 17.305 76.3822 17.008C76.1182 15.7575 76.0155 14.496 76.0228 13.2198C76.0228 12.5597 75.9275 11.8959 75.9458 11.2358C75.9715 10.308 76.0228 9.37289 76.1365 8.45242C76.2099 7.85833 76.4152 7.28258 76.5766 6.64449C75.9385 6.84985 75.7771 7.05522 75.7551 7.57229C75.7515 7.67497 75.7185 7.82899 75.6488 7.86567C74.534 8.43042 73.7748 9.36922 73.0597 10.341C71.8166 12.0316 70.6064 13.7479 69.7079 15.6585C68.9231 17.327 68.3987 19.0726 67.9917 20.8622C67.702 22.1384 67.3719 23.4073 67.1042 24.6908C66.9062 25.6333 66.8218 26.5977 66.6165 27.5365C66.3854 28.5817 66.0627 29.6085 65.8097 30.65C65.7437 30.9287 65.7327 31.2367 65.7803 31.5191C65.8317 31.8235 65.7657 31.9739 65.454 31.9335C64.7462 31.8418 64.0421 31.7281 63.3343 31.6255C63.173 31.6035 63.0079 31.5925 62.8466 31.5631C62.0728 31.4128 61.7831 31.0827 61.9591 30.2246C62.0105 29.9642 62.0471 29.6965 62.0471 29.4325C62.0545 27.7492 62.0838 26.066 62.0398 24.3827C62.0105 23.2789 61.8674 22.1751 61.7794 21.0713C61.7648 20.8586 61.8051 20.6422 61.7721 20.4368C61.7538 20.3121 61.6364 20.2058 61.5631 20.0884C61.4824 20.1801 61.3614 20.2571 61.3247 20.3635C60.8296 21.7314 60.3272 23.0956 59.8688 24.4781C59.2711 26.2714 58.7943 28.105 58.1012 29.8579C57.6648 30.958 56.9387 31.9482 56.3226 32.975C55.8972 33.6828 55.5232 34.4455 54.9804 35.058C54.1443 36.0004 53.1395 36.7889 51.7716 36.6679C50.7595 36.5799 49.8133 36.2168 49.0542 35.498C48.4381 34.9149 47.8441 34.3062 47.2426 33.7048C47.1913 33.6534 47.1583 33.5838 47.129 33.5177C46.7256 32.5386 46.2745 31.5705 45.9444 30.5693C45.7391 29.9459 45.6474 29.2638 45.6217 28.6037C45.5704 27.3898 45.5301 26.1687 45.6291 24.9585C45.7318 23.6933 45.9701 22.4355 46.2048 21.1849C46.3442 20.4478 46.6376 19.7401 46.7732 19.003C46.8576 18.5556 47.0813 18.3979 47.4737 18.2769C48.2034 18.0532 48.9296 17.8111 49.6373 17.5214C50.1947 17.294 50.7155 16.986 51.2546 16.7183C51.9733 16.3626 52.7398 16.4616 53.4365 16.678C53.983 16.8466 54.137 17.4701 54.1883 17.9981C54.313 19.2817 54.4817 20.5725 54.4414 21.8524C54.4047 22.9965 54.1516 24.1444 53.9096 25.2702C53.6602 26.4364 53.3889 27.6062 52.9928 28.7247C52.4464 30.2649 51.7386 31.7355 50.4294 32.821C50.3524 32.887 50.3341 33.0997 50.3708 33.217C50.6825 34.1558 51.4819 34.5849 52.307 34.9296C53.2568 35.322 53.4805 35.2157 54.1113 34.3575C54.6761 33.5911 55.3765 32.8943 55.8056 32.0582C56.4877 30.716 57.0487 29.3041 57.5621 27.8849C58.0866 26.4327 58.4606 24.9255 58.9557 23.4623C59.3774 22.2118 59.8358 20.9722 60.3602 19.7621C60.8956 18.5226 61.9738 17.9101 63.2463 17.6278C63.6607 17.5361 64.1521 18.0275 64.2401 18.6362C64.3391 19.3147 64.3758 20.0004 64.4308 20.6862C64.4711 21.1666 64.4895 21.647 64.5372 22.1237C64.5482 22.2374 64.6398 22.3438 64.6948 22.4538C64.7902 22.3584 64.9332 22.2814 64.9699 22.1678C65.1679 21.5407 65.3219 20.8952 65.531 20.2718C65.9674 18.9516 66.4404 17.6388 66.8768 16.3186C67.6249 14.0596 69.0772 12.2223 70.4964 10.3777C71.2298 9.42423 72.0109 8.48176 72.9167 7.70064C74.0352 6.73617 75.2747 5.90005 76.5216 5.09693C77.1377 4.70087 77.5851 4.26081 77.7721 3.56037C78.0141 2.66191 78.3955 1.85146 79.2793 1.40406C79.58 1.2537 79.8514 1.16936 80.0531 1.11802C80.5372 0.996998 80.9516 0.996998 81.2303 1.019C81.6117 1.01167 81.916 1.06301 82.1324 1.11435C82.5065 1.20236 82.5871 1.28671 82.6238 1.35638C82.6715 1.4554 82.6238 1.60209 82.5248 1.89913C82.0811 3.24133 81.586 4.57252 81.2229 5.93672C80.9076 7.12122 80.7315 8.3424 80.5225 9.54891C80.3978 10.2824 80.2878 11.0231 80.2511 11.7639C80.1961 12.9301 80.2034 14.0999 80.1888 15.2697C80.1851 15.6878 80.1888 16.1059 80.1888 16.6816C80.7499 16.3919 81.2596 16.1719 81.7253 15.8822C83.6249 14.7087 85.2092 13.2308 86.3167 11.2542C87.2885 9.52324 88.3483 7.84 89.3751 6.13841C89.7895 5.45265 90.3433 4.85489 90.4276 3.98577C90.4569 3.67406 90.7283 3.311 91.1904 3.31467C92.1475 3.31834 93.1083 3.30734 94.0655 3.322C94.1755 3.322 94.3735 3.45402 94.3809 3.5347C94.4029 3.87942 94.4469 4.24981 94.3442 4.56885C93.5264 7.1689 92.6169 9.73961 92.1475 12.435C91.9678 13.4692 91.7405 14.5033 91.6818 15.5485C91.6304 16.4836 91.7845 17.4334 91.8358 18.3759C91.9165 19.8207 92.4226 21.0676 93.5117 22.0614C93.9004 22.4171 94.2965 22.4831 94.7182 22.1788C95.7194 21.4563 96.2621 20.3928 96.6582 19.2927C97.377 17.3124 97.96 15.2807 98.6311 13.2821C99.3096 11.2725 100.036 9.27754 99.878 7.09555C99.845 6.62615 100.237 6.34745 100.571 6.2521C102.06 5.8377 103.556 5.72035 104.99 6.49047V6.67383L105.005 6.67016ZM50.0627 20.9099C49.8574 21.4563 49.663 21.9807 49.4576 22.5051C49.0322 23.5796 49.1899 24.7201 49.1166 25.8276C49.0176 27.2908 49.0909 28.765 49.0909 30.3456C49.2669 30.2503 49.421 30.2173 49.4723 30.1256C49.641 29.8322 49.806 29.5242 49.9197 29.2051C50.7668 26.8214 51.1372 24.3607 51.1042 21.834C51.0932 20.8402 51.1042 20.8402 50.0627 20.9062V20.9099Z" fill="#6B6B6B"/>
<path d="M33.2729 39.9194C33.1629 39.9854 33.0602 40.0917 32.9392 40.1137C32.7192 40.1541 32.4478 40.2311 32.2718 40.1431C31.5383 39.7947 30.8086 39.428 30.1228 38.9989C29.2097 38.4268 28.7292 37.5834 28.4835 36.5089C28.0031 34.3929 27.3687 32.3173 26.8553 30.2086C26.4886 28.6904 26.2025 27.1502 25.9055 25.6136C25.6965 24.5391 25.5241 23.4536 25.3481 22.3718C25.2894 22.0198 25.2637 21.6604 25.2491 21.301C25.2087 20.3952 25.1794 19.4931 25.1574 18.5873C25.1207 17.1497 25.0144 15.7085 25.0877 14.2783C25.1684 12.7711 25.4728 11.2749 25.5938 9.76398C25.7515 7.80936 26.5326 6.00877 26.9066 4.10916C27.09 3.18136 27.6291 2.39658 28.2048 1.6448C28.5166 1.23407 29.3087 1.34409 29.6791 1.67047C30.1521 2.08486 30.4382 2.59827 30.4675 3.26203C30.5188 4.41354 30.2365 5.50636 30.0274 6.62119C29.9284 7.1456 29.8441 7.68101 29.8257 8.21276C29.7744 9.87767 29.7524 11.5389 29.7304 13.2038C29.7194 14.0693 29.6937 14.9384 29.7451 15.8002C29.7927 16.585 29.9321 17.3624 30.0384 18.1435C30.1485 18.9687 30.2915 19.7864 30.3648 20.6152C30.5298 22.4488 30.6435 24.2861 31.1203 26.083C31.322 26.8495 31.355 27.6636 31.4686 28.4557C31.509 28.7491 31.5567 29.0425 31.6263 29.5045C31.8024 29.2698 31.9601 29.1341 32.0187 28.9654C32.3671 27.9496 32.6788 26.9191 33.0272 25.9033C33.4929 24.5575 34.0797 23.2703 34.8168 22.0418C35.6126 20.7179 36.7934 20.0541 38.242 19.7094C39.0157 19.5224 39.7785 19.4711 40.556 19.6434C41.8102 19.9185 42.4666 20.8499 42.87 21.9318C43.299 23.0833 43.6584 24.2788 43.8675 25.4889C44.0251 26.3911 43.8858 27.3409 43.9005 28.2687C43.9188 29.5155 43.5998 30.6964 43.068 31.8002C42.5839 32.8013 42.0375 33.7805 41.4214 34.7046C40.776 35.6728 40.0462 36.5896 39.2945 37.477C38.3116 38.6359 37.2848 39.758 36.247 40.8655C35.9023 41.2322 35.6089 41.7053 34.9818 41.698C34.5088 41.6943 34.1677 41.4963 33.933 41.1222C33.7056 40.7592 33.5223 40.3704 33.2839 39.9267L33.2729 39.9194ZM34.6004 34.712C34.6554 34.7376 34.7105 34.7633 34.7655 34.7926C35.0222 34.4369 35.3595 34.1105 35.5246 33.7145C35.9903 32.618 36.7274 31.7452 37.5892 30.9567C37.6956 30.8577 37.7799 30.733 37.8606 30.612C38.9314 28.9655 39.7455 27.2272 39.4851 25.1956C39.3751 24.3338 39.1808 23.4683 38.8911 22.6542C38.6307 21.9208 38.1503 21.8694 37.6809 22.5075C37.3288 22.9879 37.0868 23.5637 36.8668 24.1284C36.2067 25.819 35.4439 27.4766 35.2349 29.3102C35.1505 30.0326 35.0332 30.7477 34.9378 31.4701C34.8461 32.1486 34.7581 32.8307 34.6848 33.5091C34.6408 33.9088 34.6261 34.3159 34.5968 34.7193L34.6004 34.712Z" fill="#6B6B6B"/>
<path d="M25.9841 43.7381C25.3277 42.9716 24.6419 42.2565 24.0551 41.4644C23.01 40.0526 22.4122 38.417 21.8805 36.7631C21.4551 35.4355 21.1911 34.0713 21.0407 32.6815C20.894 31.3393 20.9637 30.0154 21.1287 28.6842C21.2131 27.9948 21.2057 27.2944 21.2424 26.5976L21.081 26.5169C20.8353 26.7149 20.564 26.8873 20.3513 27.1147C19.1631 28.3982 18.3123 29.9164 17.4359 31.4126C16.6547 32.7438 15.87 34.0823 15.2209 35.4832C14.3847 37.2838 13.699 39.1504 12.9179 40.9767C12.3421 42.3226 11.5903 43.5621 10.6735 44.7209C9.95843 45.623 9.08196 46.3198 8.15783 46.9542C7.83512 47.1779 7.27037 47.2146 6.86697 47.1229C5.93917 46.9139 5.03337 46.5948 4.13491 46.2758C3.30612 45.9788 2.84772 45.2636 2.43699 44.5559C1.67788 43.2504 1.28549 41.7981 0.882101 40.3533C0.77942 39.9865 0.801423 39.5832 0.764751 39.1944C0.673071 38.1969 0.552053 37.1995 0.50438 36.202C0.475042 35.5272 0.555721 34.8488 0.581391 34.174C0.614396 33.3892 0.640066 32.6081 0.673071 31.8234C0.731746 30.4555 0.786754 29.0876 0.856431 27.7198C0.904105 26.7589 0.951778 25.8018 1.04346 24.8447C1.13147 23.9132 1.27082 22.9817 1.39184 22.0539C1.51286 21.1115 1.60454 20.1616 1.7769 19.2302C2.0446 17.7816 2.34531 16.3368 2.68636 14.9029C3.01641 13.513 3.33179 12.1085 3.80853 10.7663C4.35127 9.22972 5.07738 7.75551 5.69347 6.24462C6.17754 5.05278 6.88164 3.99663 7.61142 2.95147C7.61875 2.94047 7.61142 2.9148 7.62242 2.90747C7.92313 2.67277 8.22751 2.44173 8.52822 2.20703C8.67124 2.49307 8.81426 2.77545 8.96095 3.05782C9.32033 3.74726 9.22132 4.34868 8.6419 4.88042C8.56856 4.94643 8.53555 5.09679 8.53922 5.20314C8.6089 7.00006 8.02948 8.68331 7.67009 10.4069C7.42072 11.6061 7.18969 12.8126 6.99166 14.0228C6.8083 15.1339 6.65794 16.2561 6.53326 17.3746C6.43791 18.2217 6.42691 19.0798 6.34623 19.9306C6.23622 21.1041 6.09319 22.274 5.97951 23.4511C5.87683 24.4889 5.73748 25.5304 5.71181 26.5719C5.6678 28.4862 5.69714 30.4005 5.70447 32.3148C5.70447 32.5348 5.78148 32.7548 5.78882 32.9749C5.80349 33.4479 5.79615 33.9173 5.79615 34.3904C5.79615 35.2595 5.80349 36.125 5.78882 36.9941C5.77415 37.7752 5.6678 38.5637 5.71547 39.3411C5.80715 40.9107 6.05652 42.4656 6.54426 43.9691C6.8303 44.8493 7.39872 44.9776 8.10649 44.3065C8.72991 43.7161 9.17731 42.9276 9.64305 42.1869C10.5745 40.709 11.4766 39.2128 12.3788 37.7165C13.3579 36.0883 14.3004 34.4381 15.3015 32.8208C16.5594 30.7929 17.8356 28.7722 19.1558 26.781C19.7645 25.8642 20.63 25.1821 21.6128 24.665C22.6799 24.1039 23.4867 24.4486 24.1248 25.2994C24.6419 25.9888 24.8106 26.8103 24.8839 27.6317C24.9866 28.7539 25.027 29.8834 25.071 31.0129C25.115 32.0984 25.082 33.1912 25.181 34.2694C25.2763 35.3145 25.5 36.3487 25.654 37.3865C25.7457 37.9916 25.8264 38.5967 25.8961 39.2018C25.9951 40.0562 26.0794 40.9143 26.1711 41.7725C26.1785 41.8311 26.1821 41.9008 26.2151 41.9412C26.7322 42.5646 26.4572 43.111 25.9914 43.7344L25.9841 43.7381Z" fill="#6B6B6B"/>
<path d="M24.7311 59.9482C24.6321 60.0839 24.489 60.2049 24.4377 60.359C23.9903 61.6902 23.5576 63.0287 23.1175 64.3635C23.0845 64.4626 23.0588 64.5689 23.0038 64.6533C22.9341 64.7559 22.8315 64.8366 22.7434 64.9283C22.6481 64.8256 22.5087 64.7413 22.4647 64.6239C22.1934 63.9015 21.9477 63.168 21.691 62.4419C21.4159 61.6608 21.1372 60.876 20.8255 59.9922C20.7082 60.1573 20.6165 60.2343 20.5945 60.3296C20.4624 60.8394 20.3341 61.3528 20.2314 61.8699C20.1067 62.5226 20.0077 63.1827 19.9014 63.8391C19.8794 63.9858 19.8684 64.1362 19.8647 64.2865C19.8537 64.7816 19.784 64.8476 19.1973 64.8146C19.3036 64.1875 19.4136 63.5678 19.5163 62.948C19.7217 61.7342 19.927 60.5203 20.1324 59.3101C20.1764 59.0498 20.2094 58.7857 20.2864 58.5327C20.3231 58.4043 20.4404 58.3017 20.5211 58.188C20.6055 58.2907 20.7302 58.3787 20.7742 58.4997C21.0895 59.3175 21.3866 60.1426 21.691 60.9677C21.999 61.8002 22.3071 62.6363 22.6151 63.4688C22.6591 63.4761 22.7068 63.4871 22.7508 63.4944C23.3889 61.7012 24.0233 59.9042 24.6944 58.0156C24.8081 58.1476 24.9401 58.2283 24.9621 58.3347C25.1931 59.4495 25.4058 60.568 25.6295 61.6828C25.8019 62.5336 25.9889 63.3844 26.1503 64.2389C26.1906 64.4589 26.1576 64.6899 26.1576 64.998C25.5635 64.7413 25.6112 64.2792 25.5342 63.9235C25.2922 62.783 25.0978 61.6351 24.8924 60.4873C24.8668 60.3406 24.8924 60.1866 24.8924 60.0363C24.8411 60.0069 24.7861 59.9776 24.7347 59.9482H24.7311Z" fill="#6B6B6B"/>
<path d="M77.3245 61.915C77.3245 62.7035 77.3281 63.4479 77.3245 64.1887C77.3245 64.4087 77.3355 64.6617 76.9944 64.6544C76.6901 64.6471 76.6864 64.427 76.6901 64.2143C76.7011 62.212 76.7121 60.2098 76.7267 58.2075C76.7267 58.1488 76.7597 58.0938 76.7597 58.0901C77.8416 58.0901 78.8977 58.0351 79.9465 58.1085C80.6726 58.1598 81.2704 59.0069 81.3511 59.865C81.4244 60.6095 80.955 61.4859 80.2766 61.717C79.9209 61.838 79.9355 61.981 80.0785 62.2267C80.4159 62.8171 80.779 63.3929 81.0944 63.9943C81.1714 64.141 81.12 64.3574 81.1274 64.5407C80.933 64.4747 80.636 64.471 80.5553 64.339C80.1519 63.6643 79.8218 62.9455 79.4258 62.2634C79.3341 62.1057 79.1067 61.9517 78.927 61.937C78.4136 61.893 77.8966 61.9223 77.3281 61.9223L77.3245 61.915ZM78.465 58.5999C78.465 58.5999 78.465 58.6219 78.4613 58.6365C78.2193 58.6365 77.9699 58.5999 77.7352 58.6512C77.6105 58.6769 77.4308 58.8492 77.4272 58.9629C77.3978 59.689 77.4198 60.4151 77.4088 61.1412C77.4052 61.4126 77.5372 61.4786 77.7755 61.4639C78.421 61.4273 79.0664 61.4199 79.7082 61.3649C80.2399 61.3209 80.922 60.4481 80.7863 59.9604C80.5736 59.1903 80.2912 58.8052 79.4845 58.7282C79.1434 58.6952 78.806 58.6439 78.465 58.6035V58.5999Z" fill="#6B6B6B"/>
<path d="M21.464 14.7693C22.1607 14.96 22.8612 15.1323 23.5469 15.3597C23.7083 15.4111 23.8623 15.6311 23.921 15.8034C24.1704 16.5222 23.976 16.9366 23.2866 17.2557C23.0702 17.3547 22.8502 17.4463 22.6301 17.538C22.0984 17.7581 21.596 17.7691 21.0496 17.4977C20.5105 17.23 19.9091 17.1016 19.3517 16.8669C19.073 16.7496 18.8346 16.5332 18.5742 16.3609C18.7796 16.0785 18.9299 15.7118 19.205 15.5357C19.8724 15.1103 20.6205 14.8683 21.4603 14.7656L21.464 14.7693Z" fill="#6B6B6B"/>
<path d="M31.1895 60.7064C31.1895 61.2968 31.1638 61.8909 31.1931 62.4813C31.2738 64.0215 32.539 64.689 33.8995 64.0949C34.5523 63.8088 34.842 63.1634 34.842 62.4336C34.842 61.1575 34.8347 59.8849 34.853 58.6087C34.853 58.4621 34.9924 58.22 35.1024 58.198C35.3701 58.143 35.5718 58.3374 35.5644 58.6051C35.5131 60.0903 35.7478 61.5902 35.3884 63.0644C35.128 64.1352 34.2809 64.7256 33.1808 64.832C31.7139 64.9713 30.7054 64.0435 30.577 62.6573C30.4524 61.2931 30.478 59.9143 30.4707 58.5427C30.4707 58.4217 30.7054 58.3007 30.8301 58.1797C30.9474 58.3117 31.1418 58.4254 31.1711 58.5757C31.2261 58.8545 31.1895 59.1478 31.1895 59.4375C31.1895 59.8629 31.1895 60.2883 31.1895 60.7137V60.7064Z" fill="#6B6B6B"/>
<path d="M68.8302 62.1877V64.6227H68.2764C68.2471 64.377 68.1921 64.1166 68.1921 63.8599C68.1848 61.953 68.1884 60.0424 68.1884 58.0731C69.2519 58.0181 70.3154 57.8457 71.3202 58.2124C72.0536 58.4801 72.4864 59.1182 72.5707 59.9177C72.6624 60.7978 72.2663 61.4652 71.5219 61.8906C71.2029 62.0703 70.7995 62.1473 70.4291 62.184C69.9193 62.2317 69.4023 62.195 68.8338 62.195L68.8302 62.1877ZM68.8448 61.5496C69.3583 61.5496 69.857 61.5166 70.3521 61.5569C70.8728 61.6009 71.2432 61.4176 71.5879 61.0399C71.951 60.6401 72.028 60.1707 71.8996 59.7087C71.7639 59.2209 71.3935 58.8212 70.8801 58.7405C70.22 58.6342 69.5416 58.6415 68.8485 58.5975V61.5496H68.8448Z" fill="#6B6B6B"/>
<path d="M56.4668 64.6429C54.5159 64.9142 52.5942 62.5342 53.1993 60.5613C53.5881 59.2961 54.9193 58.0309 56.3788 58.0713C57.1526 58.0896 57.853 58.2363 58.4764 58.6763C58.6121 58.7717 58.6598 58.9917 58.7515 59.1531C58.5351 59.1604 58.2821 59.2484 58.1097 59.1677C57.5303 58.8927 56.9766 58.614 56.3018 58.6323C55.0733 58.6653 54.0575 59.6408 53.8521 60.7336C53.6174 61.9732 53.9181 63.0146 54.9999 63.7334C55.9131 64.3385 56.7639 64.3495 57.7577 63.8141C57.9264 63.7224 58.0694 63.5611 58.2491 63.517C58.3994 63.4804 58.5791 63.5611 58.7441 63.5904C58.6855 63.7224 58.6598 63.9131 58.5571 63.9828C57.908 64.4118 57.2369 64.8042 56.4668 64.6465V64.6429Z" fill="#6B6B6B"/>
<path d="M39.9484 63.4973C40.3408 63.6953 40.7222 63.9227 41.1293 64.084C41.694 64.3041 42.2808 64.3151 42.7978 63.9557C43.3186 63.5926 43.5533 62.7968 42.7758 62.2614C42.2588 61.9057 41.6757 61.6197 41.0853 61.407C40.4435 61.1759 39.8017 60.3508 39.8641 59.6137C39.9191 58.9756 40.3592 58.2788 41.0853 58.1395C41.859 57.9891 42.6805 57.9708 43.3809 58.4805C43.4799 58.5539 43.5129 58.7152 43.5753 58.8326C43.5496 58.8729 43.5239 58.9169 43.5019 58.9573C43.2049 58.8949 42.9115 58.7996 42.6145 58.7776C42.1341 58.7372 41.6427 58.6822 41.1733 58.7519C40.7772 58.8106 40.4985 59.1333 40.4325 59.555C40.3592 60.0208 40.5168 60.4242 40.9276 60.6589C41.441 60.9522 41.9617 61.2493 42.5155 61.4473C43.2672 61.7187 43.7366 62.2138 43.8613 62.9765C43.942 63.4606 43.7476 63.9447 43.3846 64.2564C42.4715 65.0375 40.9569 64.8945 40.0511 64.216C39.9081 64.1097 39.8898 63.8347 39.8164 63.6366C39.8604 63.589 39.9081 63.5413 39.9521 63.4936L39.9484 63.4973Z" fill="#6B6B6B"/>
<path d="M48.8217 58.0664C48.8217 60.2191 48.8253 62.3167 48.807 64.4143C48.807 64.5243 48.6126 64.6344 48.51 64.748C48.4 64.6417 48.1983 64.539 48.1983 64.4327C48.1469 62.4377 48.1212 60.4428 48.0919 58.4478C48.0846 57.9454 48.444 58.1398 48.8217 58.0701V58.0664Z" fill="#6B6B6B"/>
</g>
<defs>
<clipPath id="clip0_462_4204">
<rect width="104.508" height="64" fill="white" transform="translate(0.498047 0.996094)"/>
</clipPath>
</defs>
</svg>
