<svg width="151" height="150" viewBox="0 0 151 150" fill="none" xmlns="http://www.w3.org/2000/svg">
<path d="M108.526 95.9614C108.46 95.8829 108.388 95.8174 108.316 95.7585C113.998 88.0602 117.363 78.5553 117.363 68.2713C117.363 42.689 96.5528 21.8789 70.9705 21.8789C45.3883 21.8789 24.5781 42.689 24.5781 68.2713C24.5781 93.8536 45.3883 114.664 70.9705 114.664C79.8602 114.664 88.1672 112.143 95.2305 107.797L106.935 121.963C107.858 123.082 109.22 123.645 110.679 123.645C112.126 123.645 113.671 123.102 115.006 122.008L119.202 118.578C120.675 117.374 121.618 115.711 121.775 114.009C121.899 112.687 121.533 111.443 120.741 110.5L108.519 95.9614H108.526ZM27.8577 68.2713C27.8577 44.4958 47.2016 25.152 70.9771 25.152C94.7526 25.152 114.096 44.4958 114.096 68.2713C114.096 92.0468 94.7526 111.391 70.9771 111.391C47.2016 111.391 27.8577 92.0468 27.8577 68.2713ZM118.528 113.701C118.45 114.52 117.932 115.397 117.147 116.038L112.951 119.469C111.733 120.464 110.11 120.653 109.468 119.874L97.9733 105.957C101.037 103.758 103.819 101.198 106.261 98.3377L118.247 112.602C118.535 112.942 118.561 113.387 118.528 113.695V113.701Z" fill="#07F2B4"/>
<path d="M64.4899 67.4138C70.689 67.4138 75.7296 62.3732 75.7296 56.1741C75.7296 49.9749 70.689 44.9344 64.4899 44.9344C58.2907 44.9344 53.2502 49.9749 53.2502 56.1741C53.2502 62.3732 58.2907 67.4138 64.4899 67.4138ZM64.4899 48.2074C68.8823 48.2074 72.4565 51.7816 72.4565 56.1741C72.4565 60.5665 68.8823 64.1407 64.4899 64.1407C60.0974 64.1407 56.5232 60.5665 56.5232 56.1741C56.5232 51.7816 60.0974 48.2074 64.4899 48.2074Z" fill="#07F2B4"/>
<path d="M67.0625 73.9272H61.9303C53.7019 73.9272 47.0117 80.074 47.0117 87.6348V89.9652C47.0117 90.8685 47.7449 91.6017 48.6482 91.6017C49.5516 91.6017 50.2848 90.8685 50.2848 89.9652V87.6348C50.2848 81.8807 55.5086 77.2002 61.9303 77.2002H67.0625C73.4842 77.2002 78.7081 81.8807 78.7081 87.6348V89.9652C78.7081 90.8685 79.4412 91.6017 80.3446 91.6017C81.248 91.6017 81.9811 90.8685 81.9811 89.9652V87.6348C81.9811 80.074 75.2844 73.9272 67.0625 73.9272Z" fill="#07F2B4"/>
<path d="M80.8945 63.905C80.0173 64.1276 79.4936 65.0179 79.7162 65.8951C79.906 66.6348 80.5737 67.1257 81.3003 67.1257C81.4378 67.1257 81.5687 67.1061 81.7062 67.0734C85.6862 66.0522 88.7891 62.9493 89.8103 58.9758C91.3486 52.973 87.7155 46.8393 81.7062 45.3009C80.829 45.0718 79.9387 45.6021 79.7162 46.4792C79.4936 47.3564 80.0173 48.2467 80.8945 48.4693C85.1494 49.5625 87.7286 53.9091 86.6354 58.1641C85.9153 60.9855 83.7158 63.185 80.8945 63.905Z" fill="#07F2B4"/>
<path d="M86.511 74.1563C85.6339 73.9337 84.7436 74.4574 84.5145 75.3346C84.2919 76.2118 84.8156 77.102 85.6928 77.3312C89.1884 78.2345 91.6498 81.3897 91.6694 84.9901V89.7884C91.6694 90.6918 92.4026 91.425 93.3059 91.425C94.2093 91.425 94.9425 90.6918 94.9425 89.7884V84.977C94.9163 79.8841 91.4468 75.4328 86.511 74.1563Z" fill="#07F2B4"/>
</svg>
