<svg width="151" height="150" viewBox="0 0 151 150" fill="none" xmlns="http://www.w3.org/2000/svg">
<path d="M54.2087 116.591H52.4319C48.3383 116.591 45.0101 113.263 45.0101 109.17V96.6019C45.0101 95.6588 44.2447 94.8933 43.3016 94.8933C42.3585 94.8933 41.5931 95.6588 41.5931 96.6019V109.17C41.5931 115.143 46.4521 120.008 52.4319 120.008H54.2087C55.1518 120.008 55.9173 119.243 55.9173 118.3C55.9173 117.357 55.1518 116.591 54.2087 116.591Z" fill="#07F2B4"/>
<path d="M117.28 54.7913C117.28 54.7161 117.273 54.6341 117.26 54.5657C117.246 54.4906 117.218 54.4222 117.198 54.3539C117.184 54.3197 117.177 54.2787 117.164 54.2445C117.13 54.1694 117.089 54.0942 117.048 54.0259C117.034 54.0054 117.027 53.978 117.007 53.9575C116.945 53.8618 116.87 53.773 116.795 53.6978L91.3244 28.2274C91.0032 27.9062 90.5726 27.7285 90.1147 27.7285H52.4388C46.4658 27.7285 41.6 32.5875 41.6 38.5673V43.2076C41.6 44.1507 42.3654 44.9161 43.3085 44.9161C44.2516 44.9161 45.017 44.1507 45.017 43.2076V38.5673C45.017 34.4737 48.3452 31.1455 52.4388 31.1455H88.1876L88.0372 48.873C88.0167 50.9574 88.8163 52.9187 90.2856 54.3949C91.7481 55.8642 93.6958 56.6775 95.7733 56.6775H95.7938L113.877 56.6228V109.176C113.877 113.27 110.548 116.598 106.455 116.598H105.129C104.186 116.598 103.421 117.364 103.421 118.307C103.421 119.25 104.186 120.015 105.129 120.015H106.455C112.428 120.015 117.294 115.156 117.294 109.176V54.9074C117.294 54.8733 117.287 54.8391 117.28 54.7981V54.7913ZM95.7802 53.2536H95.7665C94.6047 53.2536 93.5181 52.8026 92.7048 51.9825C91.8848 51.1556 91.4405 50.0621 91.4474 48.9003L91.5841 33.3256L111.471 53.2126L95.7802 53.2604V53.2536Z" fill="#07F2B4"/>
<path d="M49.1448 49.9391C37.9711 49.9391 28.875 59.0284 28.875 70.2088C28.875 72.8399 29.3876 75.3549 30.3033 77.6648C30.3033 77.6853 30.3101 77.6989 30.317 77.7194C30.317 77.7331 30.3307 77.7399 30.3375 77.7536C33.3376 85.2027 40.6364 90.4786 49.1448 90.4786C60.3184 90.4786 69.4145 81.3893 69.4145 70.2088C69.4145 59.0284 60.3252 49.9391 49.1448 49.9391ZM34.2124 78.0065L47.4362 72.7306V86.9727C41.682 86.3918 36.782 82.8996 34.2124 78.0065ZM50.8533 86.9727V70.2088C50.8533 70.1747 50.8464 70.1337 50.8396 70.0995C50.8396 70.0312 50.8327 69.956 50.8191 69.8876C50.8054 69.8261 50.7849 69.7646 50.7644 69.7031C50.7507 69.6621 50.7439 69.6211 50.7303 69.5801C50.7303 69.5801 50.7302 69.5733 50.7234 69.5664C50.6961 69.4981 50.6619 69.4366 50.6277 69.3751C50.6072 69.3409 50.5867 69.2999 50.5662 69.2589C50.5389 69.2179 50.4979 69.1769 50.4706 69.1359C50.4364 69.0881 50.4022 69.0402 50.3612 68.9992C50.3339 68.9719 50.3065 68.9514 50.2723 68.9309C50.2177 68.883 50.163 68.8352 50.1083 68.7942C50.0537 68.76 49.999 68.7327 49.9375 68.6985C49.8965 68.678 49.8623 68.6507 49.8213 68.637C49.7666 68.6165 49.712 68.6028 49.6573 68.5823C49.6026 68.5687 49.5548 68.5482 49.5001 68.5345C49.4591 68.5277 49.4181 68.5277 49.3771 68.5208C49.3019 68.514 49.2336 68.5003 49.1584 68.5003C49.1584 68.5003 49.1516 68.5003 49.1448 68.5003C49.1037 68.5003 49.0627 68.5072 49.0217 68.514C48.9534 68.514 48.885 68.5208 48.8235 68.5345C48.7552 68.5482 48.6937 68.5687 48.6322 68.5892C48.5912 68.6028 48.5502 68.6097 48.5092 68.6233L32.9413 74.8355C32.5175 73.3662 32.292 71.8148 32.292 70.2088C32.292 60.9146 39.8505 53.3561 49.1448 53.3561C58.439 53.3561 65.9975 60.9146 65.9975 70.2088C65.9975 78.9222 59.348 86.1116 50.8533 86.9727Z" fill="#07F2B4"/>
<path d="M64.3709 115.081C63.4279 115.081 62.6624 115.846 62.6624 116.79V127.396C62.6624 128.339 63.4279 129.104 64.3709 129.104C65.314 129.104 66.0795 128.339 66.0795 127.396V116.79C66.0795 115.846 65.314 115.081 64.3709 115.081Z" fill="#07F2B4"/>
<path d="M74.6015 104.099C73.6584 104.099 72.893 104.864 72.893 105.807V127.396C72.893 128.339 73.6584 129.104 74.6015 129.104C75.5446 129.104 76.31 128.339 76.31 127.396V105.807C76.31 104.864 75.5446 104.099 74.6015 104.099Z" fill="#07F2B4"/>
<path d="M85.5838 106.334C84.6407 106.334 83.8753 107.099 83.8753 108.042V127.396C83.8753 128.339 84.6407 129.104 85.5838 129.104C86.5269 129.104 87.2923 128.339 87.2923 127.396V108.042C87.2923 107.099 86.5269 106.334 85.5838 106.334Z" fill="#07F2B4"/>
<path d="M96.4909 93.9639C95.5478 93.9639 94.7824 94.7293 94.7824 95.6724V127.396C94.7824 128.339 95.5478 129.104 96.4909 129.104C97.434 129.104 98.1994 128.339 98.1994 127.396V95.6724C98.1994 94.7293 97.434 93.9639 96.4909 93.9639Z" fill="#07F2B4"/>
</svg>
