<svg width="151" height="150" viewBox="0 0 151 150" fill="none" xmlns="http://www.w3.org/2000/svg">
<path d="M37.7793 86.9709C38.1963 86.9709 38.6202 86.8205 38.9484 86.506L69.9524 57.4026L75.6062 62.3045C76.2762 62.8856 77.2812 62.8582 77.917 62.2429L111.061 30.0836L111.485 36.9475C111.539 37.8568 112.291 38.5541 113.187 38.5541C113.221 38.5541 113.255 38.5541 113.296 38.5541C114.24 38.4994 114.958 37.6859 114.896 36.7424L114.254 26.3644C114.199 25.421 113.385 24.71 112.442 24.7647C112.442 24.7647 112.428 24.7647 112.421 24.7647C112.394 24.7647 112.367 24.7647 112.339 24.7647H101.852C100.908 24.7647 100.143 25.5304 100.143 26.4738C100.143 27.4173 100.908 28.183 101.852 28.183H108.121L76.6522 58.7152L71.0189 53.8271C70.3557 53.2528 69.3644 53.2733 68.7286 53.8749L36.5966 84.038C35.9061 84.6875 35.8719 85.7677 36.5214 86.4513C36.8563 86.8068 37.3144 86.9914 37.7656 86.9914L37.7793 86.9709Z" fill="#07F2B4"/>
<path d="M117.535 47.3665H108.217C104.607 47.3665 101.674 50.2994 101.674 53.9091V111.822C101.674 112.765 102.44 113.531 103.383 113.531C104.327 113.531 105.093 112.765 105.093 111.822V53.9091C105.093 52.1863 106.494 50.7848 108.217 50.7848H117.535C119.258 50.7848 120.659 52.1863 120.659 53.9091V121.749H90.6126V85.0157C90.6126 81.4333 87.7002 78.5209 84.1178 78.5209H74.6901C71.1282 78.5209 68.209 81.4196 68.1953 84.9883L68.0586 111.822C68.0586 112.765 68.8175 113.538 69.7609 113.538H69.7678C70.7112 113.538 71.4701 112.779 71.4769 111.836L71.6136 85.002C71.6205 83.3133 73.0015 81.9392 74.6901 81.9392H84.1178C85.8133 81.9392 87.1943 83.3202 87.1943 85.0157V121.749H57.1474V102.75C57.1474 99.1606 54.2282 96.2482 50.6458 96.2482H41.2249C37.6562 96.2482 34.7438 99.1469 34.7233 102.716L34.6755 111.781C34.6755 112.724 35.4344 113.497 36.3778 113.497H36.3847C37.3213 113.497 38.087 112.738 38.0938 111.795L38.1416 102.729C38.1485 101.041 39.5363 99.6597 41.2249 99.6597H50.6458C52.3481 99.6597 53.7291 101.041 53.7291 102.743V121.742H29.5959C28.6524 121.742 27.8867 122.508 27.8867 123.451C27.8867 124.394 28.6524 125.16 29.5959 125.16H122.369C123.312 125.16 124.078 124.394 124.078 123.451V53.9091C124.078 50.2994 121.145 47.3665 117.535 47.3665Z" fill="#07F2B4"/>
</svg>
