<svg width="151" height="150" viewBox="0 0 151 150" fill="none" xmlns="http://www.w3.org/2000/svg">
<path d="M101.738 81.4607L92.9785 77.804C92.2963 77.5174 91.655 77.1354 91.0819 76.6646L56.0769 47.9429L56.684 46.3806C57.6323 43.9587 56.4317 41.2162 54.0098 40.2679L48.8999 38.2689C46.478 37.3206 43.7354 38.5214 42.7871 40.9433L19.7074 99.9763C18.7591 102.398 19.9599 105.141 22.3818 106.089L27.4916 108.088C28.0511 108.306 28.631 108.409 29.204 108.409C31.0938 108.409 32.8744 107.269 33.6044 105.407L34.116 104.09L66.8152 105.953C66.6173 107.604 66.6992 109.916 67.9136 112.284C69.2712 114.924 71.3452 116.357 72.8734 117.1L71.3315 125.314C70.9222 127.484 71.925 129.653 73.767 130.595L78.4403 132.989C79.0611 133.31 79.7297 133.467 80.4051 133.467C81.0805 133.467 81.715 133.317 82.3358 133.017C83.7071 132.355 84.7099 131.018 85.0238 129.455L88.9192 109.814L90.4134 110.353C90.966 110.551 91.5254 110.646 92.078 110.646C94.0018 110.646 95.7893 109.487 96.5397 107.583L104.372 87.6417C105.32 85.2266 104.14 82.4431 101.745 81.4402L101.738 81.4607ZM28.7332 104.916L23.6234 102.917C23.2959 102.787 23.0435 102.542 22.9003 102.221C22.757 101.9 22.757 101.545 22.8798 101.225L45.9595 42.1917C46.2187 41.5232 46.976 41.1889 47.6514 41.4481L52.7612 43.447C53.4298 43.7063 53.7642 44.4704 53.4981 45.139L30.4183 104.172C30.1591 104.841 29.4018 105.175 28.7264 104.916H28.7332ZM70.9494 110.735C70.0557 108.995 70.0558 107.303 70.2263 106.157L74.8859 106.423L73.5419 113.573C72.655 113 71.6521 112.099 70.9494 110.735ZM81.674 128.8C81.5717 129.326 81.2579 129.756 80.8485 129.953C80.6439 130.049 80.3369 130.131 79.9958 129.953L75.3225 127.559C74.8245 127.306 74.5584 126.624 74.688 125.942L78.3175 106.608L79.3067 106.662C80.0503 106.703 80.7803 106.853 81.4762 107.106L85.6718 108.634L81.674 128.787V128.8ZM101.186 86.4137L93.3537 106.355C93.074 107.071 92.2895 107.426 91.5663 107.16L82.636 103.913C81.6263 103.544 80.5688 103.326 79.4909 103.265L35.4123 100.754L54.7534 51.279L88.9057 79.298C89.738 79.9803 90.6658 80.5397 91.655 80.949L100.415 84.6058C101.111 84.8991 101.459 85.7042 101.179 86.4137H101.186Z" fill="#07F2B4"/>
<path d="M130.187 32.7634L88.7283 16.6492C88.4418 16.5332 88.1416 16.5127 87.855 16.5605C87.7732 16.5468 87.6845 16.5332 87.5958 16.5332C86.6543 16.5332 85.8902 17.2973 85.8902 18.2388V65.3192C85.8902 66.2607 86.6543 67.0248 87.5958 67.0248C88.5372 67.0248 89.3013 66.2607 89.3013 65.3192V51.8794L130.16 36.0039C130.528 35.8607 130.815 35.6014 130.999 35.2876C131.06 35.1921 131.122 35.0898 131.163 34.9738C131.504 34.0937 131.067 33.1045 130.194 32.7634H130.187ZM89.3013 20.5311L124.92 34.3734L89.3013 48.2158V20.5311Z" fill="#07F2B4"/>
</svg>
